<?xml version="1.0" standalone="no"?>
<svg version="1.0" xmlns="http://www.w3.org/2000/svg"
 width="16px" height="16px" viewBox="0 0 1280 1280"
 preserveAspectRatio="xMidYMid meet">
<g transform="translate(0.000000,1280.000000) scale(0.100000,-0.100000)"
fill="#1a5d9e" stroke="none">
<path d="M5025 12395 c-154 -223 -285 -413 -292 -422 -11 -16 32 -46 423 -298
l434 -279 0 -347 0 -347 -451 254 c-247 140 -453 254 -457 254 -4 0 -90 -134
-192 -297 -101 -164 -221 -357 -266 -430 l-82 -132 459 -273 460 -273 -7 -340
c-4 -232 -10 -344 -18 -352 -6 -6 -142 -82 -303 -167 l-292 -156 -308 164
-308 164 3 139 c1 76 13 327 26 558 13 231 22 421 21 423 -3 4 -1040 122
-1071 122 l-22 0 -7 -587 c-9 -674 -7 -633 -19 -633 -5 0 -147 75 -317 167
-282 152 -309 169 -309 192 0 14 -11 265 -25 556 -14 292 -25 543 -25 559 l0
28 -133 -6 c-72 -4 -300 -15 -505 -26 -206 -10 -375 -20 -377 -22 -2 -2 9
-157 25 -343 16 -187 39 -454 51 -593 11 -140 17 -257 13 -262 -5 -4 -229
-110 -499 -235 -269 -125 -491 -229 -493 -230 -3 -3 423 -918 435 -934 1 -2
206 101 455 229 249 128 458 233 464 233 8 0 584 -323 601 -337 1 -1 -198
-121 -442 -265 -245 -145 -447 -267 -450 -270 -5 -10 467 -891 478 -891 4 0
213 115 463 255 250 140 458 256 462 258 4 1 140 -79 301 -178 l294 -180 -7
-334 c-4 -184 -9 -338 -11 -342 -3 -3 -139 -91 -304 -193 -246 -154 -303 -186
-318 -177 -10 5 -165 105 -343 222 -179 117 -382 249 -452 295 l-127 83 -318
-431 c-175 -237 -321 -436 -325 -443 -5 -9 156 -111 517 -326 288 -173 524
-316 525 -319 0 -3 -94 -62 -208 -132 -114 -70 -250 -154 -303 -186 l-96 -60
-518 269 c-286 148 -520 268 -521 266 -1 -1 -95 -183 -209 -404 l-206 -401 3
-63 3 -62 510 -239 c280 -131 513 -242 517 -246 6 -6 -6 -150 -71 -882 -10
-118 -17 -217 -15 -219 5 -6 1018 -90 1023 -85 2 2 14 214 27 471 13 258 24
488 26 512 l3 44 295 173 c162 95 297 170 300 167 3 -2 7 -237 10 -521 l5
-517 210 -7 c116 -4 343 -12 504 -17 162 -6 297 -9 299 -7 2 2 5 221 8 487 3
266 7 507 10 536 l5 51 296 164 c163 89 300 162 304 161 21 -6 575 -347 580
-357 1 -3 27 -711 26 -712 -1 -1 -226 -115 -499 -254 -274 -138 -498 -252
-498 -253 1 -17 440 -1001 446 -1000 5 1 244 132 532 292 287 160 527 291 531
291 5 0 12 -138 15 -308 4 -169 9 -328 12 -353 l6 -46 -496 -317 -495 -317
111 -172 c61 -95 177 -274 257 -399 l146 -228 61 0 61 0 452 315 452 316 450
-316 c247 -173 453 -315 457 -315 5 1 549 778 584 834 4 7 -165 122 -428 291
l-434 279 0 347 0 347 451 -254 c248 -140 454 -254 458 -254 3 0 106 161 228
358 123 196 243 389 267 429 l45 71 -457 272 c-251 150 -459 274 -460 275 -5
4 25 695 29 699 12 9 557 306 570 311 10 4 130 -55 320 -156 167 -89 308 -165
313 -170 8 -7 -35 -939 -49 -1071 -6 -47 -5 -47 27 -52 52 -9 1021 -116 1045
-116 l22 0 1 291 c0 161 3 295 5 299 2 4 5 147 5 319 1 204 5 311 11 311 8 0
617 -325 626 -333 0 -1 13 -263 28 -582 14 -319 28 -581 30 -583 4 -5 857 35
953 44 l62 6 -5 46 c-3 26 -14 157 -25 292 -12 135 -30 346 -40 470 -11 124
-21 262 -22 308 l-3 83 490 229 c270 126 494 231 499 232 7 3 -415 913 -432
930 -4 4 -212 -98 -462 -227 l-454 -233 -31 16 c-76 40 -574 326 -572 328 5 5
883 524 891 527 6 2 -98 205 -230 451 -175 327 -243 446 -254 443 -8 -3 -219
-119 -469 -259 l-454 -255 -291 183 -291 183 -3 128 c-1 70 1 222 5 338 l8
209 300 188 c165 103 306 186 313 183 7 -2 162 -102 345 -222 182 -119 389
-254 459 -299 l127 -83 318 432 c176 238 322 437 326 443 4 7 -186 127 -518
325 -288 173 -524 316 -524 319 0 10 603 375 613 372 6 -2 240 -122 520 -268
280 -145 511 -263 512 -261 2 1 96 183 209 404 l206 402 -3 61 -3 62 -510 239
c-280 132 -513 243 -517 247 -4 4 15 252 42 552 26 300 46 547 45 549 -5 5
-1019 89 -1024 85 -2 -2 -14 -214 -27 -471 -13 -258 -24 -488 -26 -512 l-3
-45 -295 -172 -295 -173 -7 82 c-3 45 -6 279 -7 520 -1 341 -4 438 -13 441
-16 5 -1002 35 -1006 31 -2 -1 -5 -218 -8 -481 -3 -264 -7 -503 -10 -533 l-6
-53 -314 -154 c-173 -85 -317 -154 -321 -154 -11 0 -521 325 -542 346 -4 3
-31 697 -27 700 0 1 225 115 499 254 298 151 496 257 494 264 -53 125 -430
983 -435 987 -4 4 -241 -124 -527 -283 -286 -160 -527 -292 -536 -295 -15 -4
-17 26 -23 314 -4 175 -9 334 -12 354 l-5 36 495 317 495 317 -111 172 c-61
95 -176 274 -257 399 l-146 228 -61 0 -60 0 -453 -315 -452 -316 -450 316
c-247 173 -453 315 -457 315 -4 -1 -133 -183 -287 -405z"/>
</g>
</svg>
